# This file uses centimeters as units for non-parametric coordinates.

mtllib FireAlarm.mtl
g default
v 0.000000 0.000000 0.539289
v -0.672276 -0.000000 0.257032
v 0.672276 0.000000 0.257032
v -0.582208 0.336138 0.257032
v 0.582208 -0.336138 0.257032
v -0.336138 0.582208 0.257032
v 0.336138 -0.582208 0.257032
v -0.000000 0.672276 0.257032
v 0.000000 -0.672276 0.257032
v 0.336138 0.582208 0.257032
v -0.336138 -0.582208 0.257032
v 0.582208 0.336138 0.257032
v -0.582208 -0.336138 0.257032
v -0.000000 0.566269 0.378645
v -0.283134 0.490403 0.378645
v -0.490403 0.283134 0.378645
v -0.566269 -0.000000 0.378645
v -0.490403 -0.283134 0.378645
v -0.283134 -0.490403 0.378645
v 0.000000 -0.566269 0.378645
v 0.283134 -0.490403 0.378645
v 0.490403 -0.283134 0.378645
v 0.566269 0.000000 0.378645
v 0.490403 0.283134 0.378645
v 0.283134 0.490403 0.378645
v -0.000000 0.263159 0.468606
v -0.131579 0.227902 0.468606
v -0.227902 0.131579 0.468606
v -0.263159 -0.000000 0.468606
v -0.227902 -0.131579 0.468606
v -0.131579 -0.227902 0.468606
v 0.000000 -0.263159 0.468606
v 0.131579 -0.227902 0.468606
v 0.227902 -0.131579 0.468606
v 0.263159 0.000000 0.468606
v 0.227902 0.131579 0.468606
v 0.131579 0.227902 0.468606
v 0.072005 0.124717 0.487883
v -0.000000 0.144011 0.487883
v -0.072005 0.124717 0.487883
v -0.124717 0.072005 0.487883
v -0.144011 -0.000000 0.487883
v -0.124717 -0.072005 0.487883
v -0.072005 -0.124717 0.487883
v 0.000000 -0.144011 0.487883
v 0.072005 -0.124717 0.487883
v 0.124717 -0.072005 0.487883
v 0.144011 0.000000 0.487883
v 0.124717 0.072005 0.487883
v -0.347250 0.601455 0.000000
v -0.000000 0.694500 0.000000
v -0.601455 0.347250 0.000000
v 0.347250 0.601455 0.000000
v -0.694500 -0.000000 0.000000
v 0.601455 0.347250 0.000000
v -0.601455 -0.347250 0.000000
v 0.694500 0.000000 0.000000
v -0.347250 -0.601455 0.000000
v 0.601455 -0.347250 0.000000
v 0.000000 -0.694500 0.000000
v 0.347250 -0.601455 0.000000
v 0.072005 0.124717 0.539289
v -0.000000 0.144011 0.539289
v -0.072005 0.124717 0.539289
v -0.124717 0.072005 0.539289
v -0.144011 -0.000000 0.539289
v -0.124717 -0.072005 0.539289
v -0.072005 -0.124717 0.539289
v 0.000000 -0.144011 0.539289
v 0.072005 -0.124717 0.539289
v 0.124717 -0.072005 0.539289
v 0.144011 0.000000 0.539289
v 0.124717 0.072005 0.539289
vt 0.134100 0.055130
vt 0.141845 0.084035
vt 0.084035 0.084035
vt 0.033970 0.055130
vt 0.055130 0.033970
vt 0.026225 0.084035
vt 0.112940 0.033970
vt 0.033970 0.112940
vt 0.055130 0.134100
vt 0.084035 0.026225
vt 0.084035 0.141845
vt 0.112940 0.134100
vt 0.134100 0.112940
vt 0.418506 0.799968
vt 0.418615 0.866553
vt 0.276348 0.828433
vt 0.310364 0.769949
vt 0.172201 0.724286
vt 0.229863 0.690518
vt 0.134081 0.582020
vt 0.200688 0.582016
vt 0.172201 0.439753
vt 0.229850 0.473435
vt 0.276348 0.335606
vt 0.310552 0.393793
vt 0.418615 0.297486
vt 0.419307 0.364018
vt 0.560881 0.335606
vt 0.527105 0.394128
vt 0.665028 0.439753
vt 0.607413 0.473568
vt 0.703148 0.582020
vt 0.636589 0.582083
vt 0.665028 0.724286
vt 0.607403 0.690468
vt 0.560881 0.828433
vt 0.527252 0.769657
vt 0.418920 0.677321
vt 0.372913 0.663139
vt 0.337374 0.630283
vt 0.323420 0.582455
vt 0.337193 0.534523
vt 0.372294 0.501342
vt 0.418733 0.486690
vt 0.464875 0.500982
vt 0.500155 0.533652
vt 0.513977 0.581559
vt 0.500110 0.629465
vt 0.465171 0.662470
vt 0.443083 0.624467
vt 0.418828 0.633455
vt 0.394675 0.625011
vt 0.374807 0.607983
vt 0.369193 0.582460
vt 0.374689 0.556776
vt 0.394411 0.539519
vt 0.418815 0.530613
vt 0.443090 0.539052
vt 0.462799 0.555956
vt 0.468242 0.581486
vt 0.462702 0.607200
vt 0.420804 1.000000
vt 0.211163 0.944967
vt 0.057549 0.793065
vt 0.629060 0.942332
vt 0.000000 0.584416
vt 0.779636 0.788066
vt 0.052841 0.374175
vt 0.831804 0.583336
vt 0.206820 0.213653
vt 0.785845 0.370588
vt 0.419728 0.168070
vt 0.625636 0.218883
vt 0.168070 0.083133
vt 0.156360 0.041236
vt 0.041236 0.011710
vt 0.010807 0.042799
vt 0.000000 0.084938
vt 0.125271 0.010807
vt 0.011710 0.126834
vt 0.042799 0.157263
vt 0.083133 0.000000
vt 0.084938 0.168070
vt 0.126834 0.156361
vt 0.157263 0.125271
vn 0.000000 0.000000 1.000000
vn 0.000000 0.000000 1.000000
vn 0.000000 0.000000 1.000000
vn 0.000000 0.000000 1.000000
vn 0.000000 0.000000 1.000000
vn 0.000000 0.000000 1.000000
vn 0.000000 0.000000 1.000000
vn 0.000000 0.000000 1.000000
vn 0.000000 0.000000 1.000000
vn 0.000000 0.000000 1.000000
vn 0.000000 0.000000 1.000000
vn 0.000000 0.000000 1.000000
vn 0.000000 0.000000 1.000000
vn 0.000000 0.000000 1.000000
vn 0.000000 0.000000 1.000000
vn 0.000000 0.000000 1.000000
vn 0.000000 0.000000 1.000000
vn 0.000000 0.000000 1.000000
vn 0.000000 0.000000 1.000000
vn 0.000000 0.000000 1.000000
vn 0.000000 0.000000 1.000000
vn 0.000000 0.000000 1.000000
vn 0.000000 0.000000 1.000000
vn 0.000000 0.000000 1.000000
vn 0.000000 0.000000 1.000000
vn 0.000000 0.000000 1.000000
vn 0.000000 0.000000 1.000000
vn 0.000000 0.000000 1.000000
vn 0.000000 0.000000 1.000000
vn 0.000000 0.000000 1.000000
vn 0.000000 0.000000 1.000000
vn 0.000000 0.000000 1.000000
vn 0.000000 0.000000 1.000000
vn 0.000000 0.000000 1.000000
vn 0.000000 0.000000 1.000000
vn 0.000000 0.000000 1.000000
vn 0.000000 0.538536 0.842602
vn 0.000000 0.919515 0.393054
vn -0.459758 0.796324 0.393054
vn -0.269268 0.466386 0.842602
vn -0.269268 0.466386 0.842602
vn -0.459758 0.796324 0.393054
vn -0.796324 0.459758 0.393054
vn -0.466386 0.269268 0.842602
vn -0.466386 0.269268 0.842602
vn -0.796324 0.459758 0.393054
vn -0.919515 -0.000000 0.393054
vn -0.538536 0.000000 0.842602
vn -0.538536 0.000000 0.842602
vn -0.919515 -0.000000 0.393054
vn -0.796324 -0.459758 0.393054
vn -0.466386 -0.269268 0.842602
vn -0.466386 -0.269268 0.842602
vn -0.796324 -0.459758 0.393054
vn -0.459758 -0.796324 0.393054
vn -0.269268 -0.466386 0.842602
vn -0.269268 -0.466386 0.842602
vn -0.459758 -0.796324 0.393054
vn 0.000000 -0.919515 0.393054
vn -0.000000 -0.538536 0.842602
vn -0.000000 -0.538536 0.842602
vn 0.000000 -0.919515 0.393054
vn 0.459758 -0.796324 0.393054
vn 0.269268 -0.466386 0.842602
vn 0.269268 -0.466386 0.842602
vn 0.459758 -0.796324 0.393054
vn 0.796324 -0.459758 0.393054
vn 0.466386 -0.269268 0.842602
vn 0.466386 -0.269268 0.842602
vn 0.796324 -0.459758 0.393054
vn 0.919515 0.000000 0.393054
vn 0.538536 -0.000000 0.842602
vn 0.538536 -0.000000 0.842602
vn 0.919515 0.000000 0.393054
vn 0.796324 0.459758 0.393054
vn 0.466386 0.269268 0.842602
vn 0.466386 0.269268 0.842602
vn 0.796324 0.459758 0.393054
vn 0.459758 0.796324 0.393054
vn 0.269268 0.466386 0.842602
vn 0.269268 0.466386 0.842602
vn 0.459758 0.796324 0.393054
vn 0.000000 0.919515 0.393054
vn 0.000000 0.538536 0.842602
vn 0.000000 0.222516 0.974929
vn 0.000000 0.538536 0.842602
vn -0.269268 0.466386 0.842602
vn -0.111258 0.192704 0.974929
vn -0.111258 0.192704 0.974929
vn -0.269268 0.466386 0.842602
vn -0.466386 0.269268 0.842602
vn -0.192704 0.111258 0.974929
vn -0.192704 0.111258 0.974929
vn -0.466386 0.269268 0.842602
vn -0.538536 0.000000 0.842602
vn -0.222516 0.000000 0.974929
vn -0.222516 0.000000 0.974929
vn -0.538536 0.000000 0.842602
vn -0.466386 -0.269268 0.842602
vn -0.192704 -0.111258 0.974929
vn -0.192704 -0.111258 0.974929
vn -0.466386 -0.269268 0.842602
vn -0.269268 -0.466386 0.842602
vn -0.111258 -0.192704 0.974929
vn -0.111258 -0.192704 0.974929
vn -0.269268 -0.466386 0.842602
vn -0.000000 -0.538536 0.842602
vn -0.000000 -0.222516 0.974929
vn -0.000000 -0.222516 0.974929
vn -0.000000 -0.538536 0.842602
vn 0.269268 -0.466386 0.842602
vn 0.111258 -0.192704 0.974929
vn 0.111258 -0.192704 0.974929
vn 0.269268 -0.466386 0.842602
vn 0.466386 -0.269268 0.842602
vn 0.192704 -0.111258 0.974929
vn 0.192704 -0.111258 0.974929
vn 0.466386 -0.269268 0.842602
vn 0.538536 -0.000000 0.842602
vn 0.222516 -0.000000 0.974929
vn 0.222516 -0.000000 0.974929
vn 0.538536 -0.000000 0.842602
vn 0.466386 0.269268 0.842602
vn 0.192704 0.111258 0.974929
vn 0.192704 0.111258 0.974929
vn 0.466386 0.269268 0.842602
vn 0.269268 0.466386 0.842602
vn 0.111258 0.192704 0.974929
vn 0.111258 0.192704 0.974929
vn 0.269268 0.466386 0.842602
vn 0.000000 0.538536 0.842602
vn 0.000000 0.222516 0.974929
vn 0.079858 0.138318 0.987163
vn 0.111258 0.192704 0.974929
vn 0.000000 0.222516 0.974929
vn 0.000000 0.159716 0.987163
vn 0.000000 0.159716 0.987163
vn 0.000000 0.222516 0.974929
vn -0.111258 0.192704 0.974929
vn -0.079858 0.138318 0.987163
vn -0.079858 0.138318 0.987163
vn -0.111258 0.192704 0.974929
vn -0.192704 0.111258 0.974929
vn -0.138318 0.079858 0.987163
vn -0.138318 0.079858 0.987163
vn -0.192704 0.111258 0.974929
vn -0.222516 0.000000 0.974929
vn -0.159716 0.000000 0.987163
vn -0.159716 0.000000 0.987163
vn -0.222516 0.000000 0.974929
vn -0.192704 -0.111258 0.974929
vn -0.138318 -0.079858 0.987163
vn -0.138318 -0.079858 0.987163
vn -0.192704 -0.111258 0.974929
vn -0.111258 -0.192704 0.974929
vn -0.079858 -0.138318 0.987163
vn -0.079858 -0.138318 0.987163
vn -0.111258 -0.192704 0.974929
vn -0.000000 -0.222516 0.974929
vn -0.000000 -0.159716 0.987163
vn -0.000000 -0.159716 0.987163
vn -0.000000 -0.222516 0.974929
vn 0.111258 -0.192704 0.974929
vn 0.079858 -0.138318 0.987163
vn 0.079858 -0.138318 0.987163
vn 0.111258 -0.192704 0.974929
vn 0.192704 -0.111258 0.974929
vn 0.138318 -0.079858 0.987163
vn 0.138318 -0.079858 0.987163
vn 0.192704 -0.111258 0.974929
vn 0.222516 -0.000000 0.974929
vn 0.159716 -0.000000 0.987163
vn 0.159716 -0.000000 0.987163
vn 0.222516 -0.000000 0.974929
vn 0.192704 0.111258 0.974929
vn 0.138318 0.079858 0.987163
vn 0.138318 0.079858 0.987163
vn 0.192704 0.111258 0.974929
vn 0.111258 0.192704 0.974929
vn 0.079858 0.138318 0.987163
vn 0.000000 0.919515 0.393054
vn -0.000000 0.996283 0.086143
vn -0.498141 0.862806 0.086143
vn -0.459758 0.796324 0.393054
vn -0.459758 0.796324 0.393054
vn -0.498141 0.862806 0.086143
vn -0.862806 0.498141 0.086143
vn -0.796324 0.459758 0.393054
vn 0.459758 0.796324 0.393054
vn 0.498141 0.862806 0.086143
vn -0.000000 0.996283 0.086143
vn 0.000000 0.919515 0.393054
vn -0.796324 0.459758 0.393054
vn -0.862806 0.498141 0.086143
vn -0.996283 -0.000000 0.086143
vn -0.919515 -0.000000 0.393054
vn 0.796324 0.459758 0.393054
vn 0.862806 0.498141 0.086143
vn 0.498141 0.862806 0.086143
vn 0.459758 0.796324 0.393054
vn -0.919515 -0.000000 0.393054
vn -0.996283 -0.000000 0.086143
vn -0.862806 -0.498141 0.086143
vn -0.796324 -0.459758 0.393054
vn 0.919515 0.000000 0.393054
vn 0.996283 0.000000 0.086143
vn 0.862806 0.498141 0.086143
vn 0.796324 0.459758 0.393054
vn -0.796324 -0.459758 0.393054
vn -0.862806 -0.498141 0.086143
vn -0.498141 -0.862806 0.086143
vn -0.459758 -0.796324 0.393054
vn 0.796324 -0.459758 0.393054
vn 0.862806 -0.498141 0.086143
vn 0.996283 0.000000 0.086143
vn 0.919515 0.000000 0.393054
vn -0.459758 -0.796324 0.393054
vn -0.498141 -0.862806 0.086143
vn 0.000000 -0.996283 0.086143
vn 0.000000 -0.919515 0.393054
vn 0.459758 -0.796324 0.393054
vn 0.498141 -0.862806 0.086143
vn 0.862806 -0.498141 0.086143
vn 0.796324 -0.459758 0.393054
vn 0.000000 -0.919515 0.393054
vn 0.000000 -0.996283 0.086143
vn 0.498141 -0.862806 0.086143
vn 0.459758 -0.796324 0.393054
vn 1.000000 0.000000 0.000000
vn 1.000000 0.000000 0.000000
vn 0.866025 -0.500000 0.000000
vn 0.866025 -0.500000 0.000000
vn -0.500000 -0.866025 0.000000
vn -0.500000 -0.866025 0.000000
vn -0.866025 -0.500000 0.000000
vn -0.866025 -0.500000 0.000000
vn -0.866025 -0.500000 0.000000
vn -0.866025 -0.500000 0.000000
vn -1.000000 0.000000 0.000000
vn -1.000000 0.000000 0.000000
vn 0.866025 -0.500000 0.000000
vn 0.866025 -0.500000 0.000000
vn 0.500000 -0.866025 0.000000
vn 0.500000 -0.866025 0.000000
vn -1.000000 0.000000 0.000000
vn -1.000000 0.000000 0.000000
vn -0.866025 0.500000 0.000000
vn -0.866025 0.500000 0.000000
vn -0.866025 0.500000 0.000000
vn -0.866025 0.500000 0.000000
vn -0.500000 0.866025 0.000000
vn -0.500000 0.866025 0.000000
vn 0.500000 -0.866025 0.000000
vn 0.500000 -0.866025 0.000000
vn 0.000000 -1.000000 0.000000
vn 0.000000 -1.000000 0.000000
vn -0.500000 0.866025 0.000000
vn -0.500000 0.866025 0.000000
vn 0.000000 1.000000 0.000000
vn 0.000000 1.000000 0.000000
vn 0.000000 1.000000 0.000000
vn 0.000000 1.000000 0.000000
vn 0.500000 0.866025 0.000000
vn 0.500000 0.866025 0.000000
vn 0.000000 -1.000000 0.000000
vn 0.000000 -1.000000 0.000000
vn -0.500000 -0.866025 0.000000
vn -0.500000 -0.866025 0.000000
vn 0.500000 0.866025 0.000000
vn 0.500000 0.866025 0.000000
vn 0.866025 0.500000 0.000000
vn 0.866025 0.500000 0.000000
vn 0.866025 0.500000 0.000000
vn 0.866025 0.500000 0.000000
vn 1.000000 0.000000 0.000000
vn 1.000000 0.000000 0.000000
s off
g Alarm001 UpdatedPSR
usemtl Alarm001SG
f 71/1/1 72/2/2 1/3/3
f 67/4/4 68/5/5 1/3/6
f 66/6/7 67/4/8 1/3/9
f 70/7/10 71/1/11 1/3/12
f 65/8/13 66/6/14 1/3/15
f 64/9/16 65/8/17 1/3/18
f 69/10/19 70/7/20 1/3/21
f 63/11/22 64/9/23 1/3/24
f 62/12/25 63/11/26 1/3/27
f 68/5/28 69/10/29 1/3/30
f 73/13/31 62/12/32 1/3/33
f 72/2/34 73/13/35 1/3/36
f 14/14/37 8/15/38 6/16/39 15/17/40
f 15/17/41 6/16/42 4/18/43 16/19/44
f 16/19/45 4/18/46 2/20/47 17/21/48
f 17/21/49 2/20/50 13/22/51 18/23/52
f 18/23/53 13/22/54 11/24/55 19/25/56
f 19/25/57 11/24/58 9/26/59 20/27/60
f 20/27/61 9/26/62 7/28/63 21/29/64
f 21/29/65 7/28/66 5/30/67 22/31/68
f 22/31/69 5/30/70 3/32/71 23/33/72
f 23/33/73 3/32/74 12/34/75 24/35/76
f 24/35/77 12/34/78 10/36/79 25/37/80
f 25/37/81 10/36/82 8/15/83 14/14/84
f 26/38/85 14/14/86 15/17/87 27/39/88
f 27/39/89 15/17/90 16/19/91 28/40/92
f 28/40/93 16/19/94 17/21/95 29/41/96
f 29/41/97 17/21/98 18/23/99 30/42/100
f 30/42/101 18/23/102 19/25/103 31/43/104
f 31/43/105 19/25/106 20/27/107 32/44/108
f 32/44/109 20/27/110 21/29/111 33/45/112
f 33/45/113 21/29/114 22/31/115 34/46/116
f 34/46/117 22/31/118 23/33/119 35/47/120
f 35/47/121 23/33/122 24/35/123 36/48/124
f 36/48/125 24/35/126 25/37/127 37/49/128
f 37/49/129 25/37/130 14/14/131 26/38/132
f 38/50/133 37/49/134 26/38/135 39/51/136
f 39/51/137 26/38/138 27/39/139 40/52/140
f 40/52/141 27/39/142 28/40/143 41/53/144
f 41/53/145 28/40/146 29/41/147 42/54/148
f 42/54/149 29/41/150 30/42/151 43/55/152
f 43/55/153 30/42/154 31/43/155 44/56/156
f 44/56/157 31/43/158 32/44/159 45/57/160
f 45/57/161 32/44/162 33/45/163 46/58/164
f 46/58/165 33/45/166 34/46/167 47/59/168
f 47/59/169 34/46/170 35/47/171 48/60/172
f 48/60/173 35/47/174 36/48/175 49/61/176
f 49/61/177 36/48/178 37/49/179 38/50/180
f 8/15/181 51/62/182 50/63/183 6/16/184
f 6/16/185 50/63/186 52/64/187 4/18/188
f 10/36/189 53/65/190 51/62/191 8/15/192
f 4/18/193 52/64/194 54/66/195 2/20/196
f 12/34/197 55/67/198 53/65/199 10/36/200
f 2/20/201 54/66/202 56/68/203 13/22/204
f 3/32/205 57/69/206 55/67/207 12/34/208
f 13/22/209 56/68/210 58/70/211 11/24/212
f 5/30/213 59/71/214 57/69/215 3/32/216
f 11/24/217 58/70/218 60/72/219 9/26/220
f 7/28/221 61/73/222 59/71/223 5/30/224
f 9/26/225 60/72/226 61/73/227 7/28/228
f 48/74/229 72/2/230 71/1/231 47/75/232
f 44/76/233 68/5/234 67/4/235 43/77/236
f 43/77/237 67/4/238 66/6/239 42/78/240
f 47/75/241 71/1/242 70/7/243 46/79/244
f 42/78/245 66/6/246 65/8/247 41/80/248
f 41/80/249 65/8/250 64/9/251 40/81/252
f 46/79/253 70/7/254 69/10/255 45/82/256
f 40/81/257 64/9/258 63/11/259 39/83/260
f 39/83/261 63/11/262 62/12/263 38/84/264
f 45/82/265 69/10/266 68/5/267 44/76/268
f 38/84/269 62/12/270 73/13/271 49/85/272
f 49/85/273 73/13/274 72/2/275 48/74/276
